<?xml version="1.0"?>
<svg xmlns="http://www.w3.org/2000/svg" xmlns:xlink="http://www.w3.org/1999/xlink" xmlns:svgjs="http://svgjs.com/svgjs" version="1.1" width="512" height="512" x="0" y="0" viewBox="0 0 512 512" style="enable-background:new 0 0 512 512" xml:space="preserve" class=""><g><path xmlns="http://www.w3.org/2000/svg" d="m294.896 368.082c3.7-4.434 4.839-10.364 3.049-15.861-1.785-5.478-6.178-9.583-11.753-10.982l-9.812-2.458c-.395-.099-.733-.347-.952-.702l-5.358-8.628v.001c-3.051-4.914-8.317-7.846-14.087-7.846s-11.036 2.933-14.086 7.845l-5.36 8.63c-.219.352-.557.601-.949.699l-9.816 2.46c-5.574 1.397-9.967 5.502-11.752 10.98-1.791 5.497-.651 11.427 3.049 15.861l6.503 7.794c.272.327.406.745.376 1.174l-.707 10.149c-.403 5.784 2.154 11.263 6.839 14.659 4.66 3.377 10.623 4.1 15.952 1.933l9.377-3.812c.37-.15.777-.15 1.146-.001l9.378 3.814c5.266 2.141 11.351 1.4 15.952-1.934 4.685-3.395 7.241-8.876 6.838-14.659l-.707-10.15c-.03-.43.104-.846.376-1.173zm-11.539-9.629-6.504 7.794c-2.771 3.321-4.131 7.528-3.83 11.848l.707 10.149c.079 1.136-1.035 2.069-2.136 1.625l-9.378-3.814c-3.978-1.617-8.49-1.618-12.468.001l-9.377 3.812c-1.098.449-2.216-.491-2.137-1.624l.708-10.15c.3-4.321-1.06-8.528-3.831-11.847l-6.502-7.793c-.745-.894-.335-2.348.816-2.635l9.818-2.46c4.201-1.054 7.774-3.664 10.061-7.349l5.359-8.629c.606-.974 2.037-.99 2.637.001l5.358 8.626c2.288 3.687 5.862 6.297 10.066 7.352l9.813 2.459c1.151.288 1.567 1.738.82 2.634z" fill="#ffffff" data-original="#000000" style="" class=""/><path xmlns="http://www.w3.org/2000/svg" d="m297.945 216.202c-1.785-5.479-6.179-9.583-11.752-10.979l-9.812-2.459c-.395-.099-.733-.348-.952-.7l-5.358-8.629c-3.051-4.914-8.317-7.846-14.087-7.846s-11.036 2.932-14.087 7.845l-5.358 8.629c-.219.352-.557.602-.95.7l-9.814 2.46c-5.574 1.397-9.968 5.501-11.753 10.979-1.792 5.497-.652 11.427 3.049 15.862l6.503 7.794c.272.327.406.745.376 1.174l-.707 10.149c-.403 5.785 2.154 11.265 6.84 14.66 4.602 3.335 10.685 4.076 15.951 1.932l9.377-3.812c.37-.15.777-.149 1.146-.001l9.377 3.813c5.328 2.168 11.291 1.444 15.952-1.932 4.685-3.395 7.242-8.876 6.839-14.66l-.707-10.15c-.03-.43.104-.846.376-1.173l6.503-7.794c3.699-4.436 4.839-10.365 3.048-15.862zm-14.588 6.232-6.504 7.794c-2.771 3.321-4.131 7.528-3.83 11.848l.707 10.149c.079 1.135-1.036 2.072-2.136 1.625l-9.378-3.814c-3.978-1.617-8.49-1.618-12.468.001l-9.378 3.813c-1.097.448-2.214-.492-2.135-1.625l.708-10.15c.3-4.321-1.06-8.528-3.831-11.847l-6.502-7.793c-.746-.895-.334-2.347.817-2.634l9.817-2.461c4.2-1.054 7.773-3.663 10.062-7.348l5.359-8.63c.61-.981 2.027-.982 2.637 0l5.359 8.63c2.288 3.685 5.862 6.294 10.064 7.349l9.815 2.46c1.148.289 1.564 1.738.817 2.633z" fill="#ffffff" data-original="#000000" style="" class=""/><path xmlns="http://www.w3.org/2000/svg" d="m294.896 94.881c3.7-4.434 4.84-10.363 3.05-15.86-1.785-5.479-6.179-9.584-11.753-10.982l-9.815-2.46c-.393-.099-.73-.346-.949-.699l-5.358-8.629s0-.001-.001-.001c-3.051-4.912-8.317-7.845-14.087-7.845s-11.035 2.934-14.087 7.845l-5.358 8.629c-.219.353-.556.602-.95.7l-9.815 2.461c-5.574 1.397-9.968 5.502-11.753 10.981-1.79 5.497-.65 11.426 3.05 15.859l6.503 7.794c.272.327.406.745.376 1.174l-.707 10.15c-.403 5.784 2.154 11.263 6.839 14.658 4.66 3.377 10.623 4.1 15.952 1.934l9.377-3.812c.37-.15.777-.15 1.146-.001l9.378 3.814c5.266 2.141 11.351 1.4 15.952-1.934 4.685-3.395 7.241-8.876 6.838-14.658l-.707-10.151c-.03-.429.104-.846.376-1.173zm-11.539-9.63-6.504 7.794c-2.771 3.321-4.131 7.528-3.83 11.848l.707 10.15c.079 1.135-1.035 2.071-2.136 1.625l-9.378-3.814c-3.978-1.617-8.49-1.618-12.468.001l-9.377 3.812c-1.098.449-2.216-.491-2.137-1.624l.708-10.151c.3-4.321-1.06-8.528-3.831-11.847l-6.502-7.794c-.746-.894-.333-2.346.818-2.633l9.814-2.46c4.2-1.053 7.774-3.662 10.065-7.349l5.358-8.629c.609-.982 2.028-.984 2.638 0l5.358 8.629c2.29 3.687 5.864 6.297 10.064 7.349l9.814 2.46c1.15.287 1.566 1.737.819 2.633z" fill="#ffffff" data-original="#000000" style="" class=""/><path xmlns="http://www.w3.org/2000/svg" d="m479.358 384.552c-18.041-10.552-43.645-19.786-74.255-26.817-7.342-38.677-21.401-107.113-40.266-173.231 8.024.89 15.862 1.378 23.267 1.378 18.923-.001 35.041-3.156 44.307-10.721 7.935-6.479 10.523-15.803 7.284-26.256-1.612-5.204-6.517-21.042-82.898-82.027-3.243-2.59-7.972-2.059-10.561 1.184-2.59 3.244-2.06 7.972 1.184 10.562 65.679 52.439 76.371 69.729 77.92 74.728 1.777 5.74-.119 8.279-2.433 10.168-5.515 4.504-16.952 6.979-32.021 7.234l2.717-3.256c3.7-4.434 4.839-10.364 3.049-15.861-1.785-5.478-6.178-9.583-11.753-10.981l-9.815-2.46c-.393-.099-.73-.346-.949-.7l-5.358-8.627c-3.051-4.914-8.317-7.846-14.087-7.846s-11.036 2.933-14.087 7.846l-5.359 8.63c-.218.351-.555.6-.949.698l-9.815 2.461c-5.574 1.397-9.968 5.502-11.753 10.981-.674 2.069-.932 4.198-.796 6.287-12.225-3.907-23.353-8.474-32.303-13.385-3.638-1.996-8.206-.664-10.203 2.973-1.997 3.638-.665 8.206 2.974 10.203 18.907 10.374 47.684 19.586 76.132 24.472 7.48 25.712 14.233 51.95 20.145 76.777-1.582-.494-3.252-.759-4.969-.759-5.77 0-11.036 2.932-14.087 7.845l-5.358 8.629c-.219.353-.556.602-.95.7l-9.814 2.46c-5.574 1.397-9.968 5.502-11.754 10.981-1.791 5.497-.651 11.427 3.05 15.86l6.503 7.793c.269.322.405.75.376 1.174l-.707 10.15c-.403 5.784 2.154 11.263 6.839 14.659 4.66 3.377 10.622 4.101 15.952 1.934l9.377-3.812c.37-.15.777-.15 1.146-.001 2.108.857 4.216 1.715 6.324 2.572 3.032 1.233 5.954 2.472 9.31 2.472 2.22 0 4.422-.458 6.483-1.345 4.767 23.943 9.642 50.627 9.642 51.116 0 3.26-3.908 7.416-10.723 11.401-8.493 4.967-21.215 9.512-36.791 13.143-3.938.918-6.481 4.931-5.643 8.884.861 4.059 5.013 6.697 9.055 5.753 26.975-6.289 59.131-18.191 59.131-39.18 0-1.916-2.034-12.385-2.962-17.499 54.364 13.408 88.865 33.92 88.865 53.344 0 16.571-25.232 34.308-67.496 47.447-46.23 14.372-107.838 22.287-173.475 22.287-55.949 0-108.602-5.677-152.268-16.419-4.029-.986-8.101 1.473-9.092 5.502-.992 4.03 1.472 8.102 5.502 9.093 44.823 11.022 98.718 16.85 155.858 16.85 67.109 0 130.301-8.156 177.936-22.964 51.07-15.877 78.064-37.246 78.064-61.799 0-15.656-10.982-30.017-32.642-42.685zm-152.042-226.683c-.746-.894-.334-2.348.817-2.635l9.814-2.46c4.202-1.053 7.776-3.663 10.064-7.349l5.359-8.629c.61-.981 2.027-.982 2.637.001l5.358 8.626c2.289 3.688 5.864 6.299 10.065 7.351l9.814 2.46c1.15.288 1.566 1.738.819 2.634l-6.505 7.794c-1.13 1.355-2.012 2.863-2.655 4.46-4.007-.322-8.157-.762-12.431-1.329-9.497-1.26-19.112-3.065-28.455-5.291zm53.431 156.824.707 10.15c.079 1.135-1.036 2.071-2.136 1.625l-9.378-3.814c-4.02-1.634-8.447-1.634-12.468.001l-9.377 3.812c-1.098.449-2.216-.491-2.137-1.624l.707-10.151c.301-4.321-1.06-8.528-3.831-11.847l-6.502-7.793c-.747-.894-.333-2.346.818-2.633l9.814-2.46c4.2-1.053 7.774-3.662 10.065-7.349l5.359-8.63c.609-.98 2.027-.982 2.637 0l5.359 8.631c1.262 2.032 2.945 3.738 4.906 5.043 1.942 8.694 3.759 17.08 5.449 25.072-.033.662-.037 1.321.008 1.967z" fill="#ffffff" data-original="#000000" style="" class=""/><path xmlns="http://www.w3.org/2000/svg" d="m75.449 472.39c-38.397-12.982-60.419-29.439-60.419-45.154 0-19.425 34.501-39.935 88.865-53.344-.933 5.135-2.963 15.583-2.963 17.499 0 32.115 78.009 48.918 155.068 48.918 23.008 0 45.096-1.428 65.651-4.243 4.112-.564 6.989-4.353 6.426-8.465-.563-4.113-4.349-6.987-8.465-6.426-19.882 2.723-41.284 4.104-63.612 4.104-91.943 0-140.039-22.062-140.039-33.889 0-.489 4.824-26.895 9.564-50.718 3.758 1.329 7.901 1.269 11.72-.284l9.376-3.812c.369-.15.777-.151 1.147-.001l9.378 3.814c5.266 2.141 11.35 1.4 15.952-1.934 4.685-3.395 7.241-8.875 6.839-14.659l-.707-10.149c-.029-.425.108-.853.377-1.176l6.502-7.792c3.701-4.434 4.84-10.364 3.05-15.861-1.785-5.479-6.179-9.584-11.753-10.981l-9.815-2.46c-.393-.098-.73-.346-.949-.7l-5.359-8.628c-3.051-4.914-8.317-7.846-14.087-7.846-1.297 0-2.567.156-3.794.442 4.528-19.004 9.548-38.825 15.006-58.594l7.756 3.155c5.266 2.141 11.35 1.4 15.952-1.934 4.685-3.395 7.241-8.875 6.839-14.659l-.707-10.148c-.03-.432.104-.849.377-1.176l6.503-7.793c3.7-4.434 4.84-10.363 3.049-15.86-1.785-5.479-6.178-9.584-11.753-10.982l-9.238-2.315c35.841-106.063 64.2-123.31 78.814-123.31 5.74 0 11.806 2.571 18.057 7.633.368.419 23.141 16.93 49.786 37.476 3.244 2.501 8.041 1.879 10.54-1.362 2.534-3.287 1.924-8.006-1.363-10.54-23.162-17.859-42.609-32.042-47.645-35.694-9.581-8.319-19.463-12.542-29.375-12.542-37.359 0-72.555 58.939-107.599 180.185-19.477 67.387-34.004 138.054-41.503 177.549-30.61 7.032-56.215 16.266-74.256 26.818-21.66 12.668-32.642 27.029-32.642 42.685 0 23.231 24.425 43.768 70.635 59.39 4.041 1.368 8.506-1.016 9.648-5.115 1.057-3.79-1.111-7.863-4.834-9.122zm87.39-288.033c3.266-11.299 6.481-21.854 9.643-31.726.159.045.312.103.472.143l9.814 2.459c1.149.29 1.566 1.739.818 2.635l-6.503 7.793c-2.77 3.321-4.13 7.528-3.83 11.849l.708 10.149c.079 1.136-1.036 2.069-2.136 1.625l-9.313-3.787c.11-.38.218-.76.327-1.14zm-25.913 102.333c1.403-1.149 2.621-2.518 3.592-4.082l5.358-8.629c.61-.981 2.027-.982 2.637.001l5.359 8.629c2.29 3.687 5.864 6.296 10.064 7.349l9.815 2.46c1.15.287 1.563 1.739.817 2.634l-6.502 7.792c-2.772 3.32-4.132 7.527-3.831 11.849l.707 10.15c.079 1.134-1.036 2.071-2.136 1.625l-9.378-3.814c-4.02-1.634-8.447-1.632-12.468.001l-9.376 3.812c-1.098.449-2.216-.49-2.137-1.624.058-.828-.026-1.631-.222-2.393 2.298-11.092 4.871-23.111 7.701-35.76z" fill="#ffffff" data-original="#000000" style="" class=""/></g></svg>
